<svg id="Layer_1" data-name="Layer 1" xmlns="http://www.w3.org/2000/svg" width="27.83" height="28.13" viewBox="0 0 27.83 28.13"><defs><style>.cls-1{fill:#fff;}</style></defs><title>ZoomUnLocked</title><path id="Mag_Ring" data-name="Mag Ring" class="cls-1" d="M16.91,0A10.92,10.92,0,1,0,27.83,10.92,10.92,10.92,0,0,0,16.91,0Zm-.09,19.39a8.47,8.47,0,1,1,8.47-8.47A8.47,8.47,0,0,1,16.82,19.39Z"/><rect id="Handle" class="cls-1" x="2.63" y="17.73" width="4.07" height="11.46" rx="1.99" transform="translate(17.96 3.57) rotate(45)"/><path id="Lock_Base" data-name="Lock Base" class="cls-1" d="M20.16,9.8h-6.5a1.1,1.1,0,0,0-1.1,1.1v4a1.1,1.1,0,0,0,1.1,1.1h6.5a1.11,1.11,0,0,0,1.11-1.1v-4A1.11,1.11,0,0,0,20.16,9.8ZM17,14.5a1.22,1.22,0,1,1,1.23-1.22A1.22,1.22,0,0,1,17,14.5Z"/><path class="cls-1" d="M16.82,3.86a3.52,3.52,0,0,0-3.51,3.52h1.36a2.15,2.15,0,1,1,4.3,0v4.33c1.36,0,1.36.56,1.36-4.33A3.53,3.53,0,0,0,16.82,3.86Z"/></svg>